<?xml version="1.0" standalone="no"?>
<!DOCTYPE svg PUBLIC "-//W3C//DTD SVG 20010904//EN"
 "http://www.w3.org/TR/2001/REC-SVG-20010904/DTD/svg10.dtd">
<svg version="1.0" xmlns="http://www.w3.org/2000/svg"
 width="500.000000pt" height="500.000000pt" viewBox="0 0 500.000000 500.000000"
 preserveAspectRatio="xMidYMid meet" stroke="currentColor">

<g transform="translate(0.000000,500.000000) scale(0.100000,-0.100000)"
fill="#000000" stroke="currentColor" stroke-width="0">
<path d="M2385 3449 c-199 -29 -400 -156 -511 -323 -35 -54 -36 -56 -38 -168
-3 -132 -25 -207 -89 -302 l-39 -58 12 -77 c55 -339 264 -599 555 -688 148
-46 238 -53 360 -29 272 53 472 226 555 479 16 49 39 247 40 345 0 9 -74 12
-335 12 l-335 0 0 -80 0 -80 250 0 c287 0 264 10 234 -104 -37 -145 -113 -257
-222 -329 -108 -72 -175 -91 -317 -91 -136 -1 -209 17 -313 78 -69 41 -173
149 -221 230 -62 103 -84 186 -89 326 -7 205 39 354 153 493 115 142 279 217
475 217 178 0 301 -50 421 -169 41 -42 82 -87 90 -100 l15 -24 52 28 c77 42
80 48 46 97 -51 75 -158 174 -239 221 -151 89 -330 122 -510 96z"/>
<path d="M757 3443 c-4 -3 -7 -372 -7 -820 l0 -813 80 0 80 0 0 330 0 330 205
0 c223 0 279 8 371 51 166 78 266 241 266 434 0 110 -25 192 -87 285 -71 107
-180 178 -306 199 -70 12 -591 16 -602 4z m661 -181 c63 -34 120 -89 150 -146
24 -46 27 -61 27 -156 0 -95 -3 -110 -27 -156 -35 -66 -105 -128 -174 -154
-49 -18 -78 -20 -269 -20 l-215 0 0 331 0 330 233 -3 c220 -3 234 -4 275 -26z"/>
<path d="M3307 3313 c-4 -71 -7 -437 -7 -815 l0 -688 80 0 80 0 2 331 3 331
192 -2 c276 -1 373 26 494 138 232 215 180 608 -102 770 -98 56 -143 62 -455
62 l-281 0 -6 -127z m636 -55 c77 -36 150 -112 177 -185 18 -47 21 -73 18
-138 -7 -130 -66 -217 -187 -277 -43 -22 -60 -23 -268 -26 l-223 -3 0 331 0
331 213 -3 c206 -3 214 -4 270 -30z"/>
</g>
</svg>
